<svg width="16" height="19" viewBox="0 0 16 19" fill="none" xmlns="http://www.w3.org/2000/svg">
<path d="M7.99076 9.45741C10.4517 9.45623 12.4898 7.45134 12.4886 4.95524C12.4874 2.49431 10.4474 0.456228 7.98642 0.457415C5.49032 0.458618 3.4874 2.49865 3.48859 4.95958C3.48979 7.45568 5.49466 9.45862 7.99076 9.45741ZM11.1202 10.5809L10.5226 10.5812C9.7493 10.9683 8.90563 11.1445 7.99157 11.1449C7.07751 11.1454 6.19852 10.97 5.42489 10.5837L4.82724 10.5839C2.22568 10.5852 0.117336 12.7307 0.118591 15.3323L0.119286 16.7737C0.119744 17.7229 0.858381 18.4609 1.8076 18.4604L14.1826 18.4544C15.0967 18.454 15.8697 17.7153 15.8693 16.7661L15.8686 15.3247C15.8673 12.7231 13.7218 10.5796 11.1202 10.5809Z" fill="url(#paint0_linear_1_95)"/>
<defs>
<linearGradient id="paint0_linear_1_95" x1="-7.05273" y1="-22.1354" x2="23.8796" y2="-20.7851" gradientUnits="userSpaceOnUse">
<stop stop-color="#FFB800"/>
<stop offset="1" stop-color="#FF8A00"/>
</linearGradient>
</defs>
</svg>
